# xmcd CD database file
#
# Track frame offsets:
#	150
#	19275
#	42000
#	61103
#
# Disc length: 1027 seconds
#
# Revision: 5
# Processed by: cddbd v1.5.2PL0 Copyright (c) Steve Scherf et al.
# Submitted via: CDex 1.70
#
DISCID=28040104
DTITLE=SEAL - Prayer For The Dying(Single)
DYEAR=1994
DGENRE=Soul
TTITLE0=Prayer For The Dying
TTITLE1=Dreaming In Metaphors(Piano Version)
TTITLE2=Prayer For The Dying(Instrumental)
TTITLE3=Crazy(Acoustic Version)(1991)
EXTD=YEAR: 1994
EXTT0=
EXTT1=
EXTT2=
EXTT3=
PLAYORDER=
